<svg xmlns="http://www.w3.org/2000/svg" viewBox="0 0 24 24">
  <path fill="#181717" d="M12 .5A11.5 11.5 0 0 0 8.36 22.9c.58.1.79-.25.79-.56v-2c-3.2.7-3.88-1.38-3.88-1.38-.53-1.33-1.3-1.69-1.3-1.69-1.05-.72.08-.7.08-.7 1.17.08 1.79 1.2 1.79 1.2 1.03 1.77 2.7 1.26 3.36.96.1-.75.4-1.26.73-1.55-2.56-.29-5.25-1.28-5.25-5.7 0-1.26.45-2.3 1.2-3.1-.12-.3-.52-1.47.11-3.06 0 0 .98-.31 3.17 1.18a10.95 10.95 0 0 1 5.78 0c2.2-1.49 3.17-1.18 3.17-1.18.63 1.59.23 2.76.12 3.06.74.8 1.19 1.84 1.19 3.1 0 4.43-2.7 5.4-5.27 5.69.42.36.78 1.07.78 2.16v3.01c0 .31.2.67.8.56A11.5 11.5 0 0 0 12 .5Z"/>
</svg>
