<svg xmlns="http://www.w3.org/2000/svg" viewBox="0 0 64 64">
  <path fill="#E2761B" d="m56 8-20 15 4-10 16-5Z"/>
  <path fill="#E4761B" d="m8 8 20 15-4-10L8 8Zm40 35-5 8 11 3 3-11h-9Zm-41 0 3 11 11-3-5-8H7Z"/>
  <path fill="#D7C1B3" d="m21 30-4 6 11 1-.4-12L21 30Zm22 0-6.6-5L36 37l11-1-4-6Z"/>
  <path fill="#233447" d="m21 51 7-3-6-5-1 8Zm15-3 7 3-1-8-6 5Z"/>
  <path fill="#CD6116" d="m43 51-7-3 .6 5v2l6.4-4Zm-22 0 6.4 4v-2l.6-5-7 3Z"/>
  <path fill="#161616" d="m28 40-6-2 4 2-4 2 6-2Zm8 0 6 2-4-2 4-2-6 2Z"/>
  <path fill="#763D16" d="m21 51 1-8-6-.2 5 8.2Zm21-8 1 8 5-8.2-6 .2Zm5-7-11 1 1 6 1-3 4 2 5-6Zm-25 6 4-2 1 3 1-6-11-1 5 6Z"/>
  <path fill="#F6851B" d="m17 36 5 7-.2-4.3L17 36Zm25 7 5-7-4.8 2.7L42 43ZM28 37l-1 6 1.4 7 .3-9.3L28 37Zm8 0-.7 3.7.3 9.3L37 43l-1-6Z"/>
  <path fill="#C0AD9E" d="m37 43-1.4 7 1 1.7 6-8.7H37Zm-15 0 6 8.7 1-1.7-1.4-7H22Z"/>
  <path fill="#E2761B" d="m43.5 56 2-7-3 2-5.9 4v-2l-.9.7h-7.4l-.9-.7v2l-5.9-4-3-2 2 7 7.8 3h7.4l7.8-3Z"/>
  <path fill="#C0AD9E" d="m35.7 53.7.9-.7-.7-.6h-7.8l-.7.6.9.7h7.4Z"/>
  <path fill="#E4761B" d="m56.8 24 1.7-8.2L56 8 35.7 23.1l7.8 6.6 11-3.2 2.4 2.9-1-4.2.9-1.2Zm-51.3-8L7.2 24l.9 1.2-1 4.2 2.4-2.9 11 3.2 7.8-6.6L8 8 5.5 15.8Z"/>
</svg>
